<?xml version="1.0" encoding="utf-8"?>
<svg viewBox="0 0 160 160" xmlns="http://www.w3.org/2000/svg">
  <defs>
    <style>
      .cls-1 {
        fill: #fff;
      }
    </style>
  </defs>
  <g id="Warstwa_1" data-name="Warstwa 1">
    <g>
      <path class="cls-1" d="M125,47.091,86,24.5743a12,12,0,0,0-12,0L35,47.091a12.0336,12.0336,0,0,0-6,10.3923v45.0334a12.0335,12.0335,0,0,0,6,10.3923l39,22.5166a11.9993,11.9993,0,0,0,12,0l39-22.5166a12.0335,12.0335,0,0,0,6-10.3923V57.4833A12.0336,12.0336,0,0,0,125,47.091Zm-2,55.4257a4,4,0,0,1-2,3.464L82,128.4974a4,4,0,0,1-4,0L39,105.9807a4,4,0,0,1-2-3.464V57.4833a4,4,0,0,1,2-3.4641L78,31.5025a4,4,0,0,1,4,0l39,22.5167a4,4,0,0,1,2,3.4641Z" style="fill: rgb(238, 238, 238);"/>
      <path d="M 62.909 54.913 L 91.065 54.913 Q 98.104 54.913 101.873 58.4 Q 105.641 61.886 105.641 67.032 Q 105.641 71.349 102.952 74.437 Q 101.159 76.495 97.706 77.691 Q 102.952 78.952 105.425 82.024 Q 107.899 85.095 107.899 89.743 Q 107.899 93.528 106.139 96.55 Q 104.379 99.571 101.325 101.331 Q 99.432 102.427 95.614 102.925 Q 90.534 103.589 88.874 103.589 L 62.909 103.589 Z M 78.083 74.005 L 84.624 74.005 Q 88.143 74.005 89.521 72.793 Q 90.899 71.581 90.899 69.29 Q 90.899 67.165 89.521 65.97 Q 88.143 64.775 84.723 64.775 L 78.083 64.775 Z M 78.083 93.13 L 85.752 93.13 Q 89.637 93.13 91.231 91.752 Q 92.825 90.374 92.825 88.05 Q 92.825 85.892 91.248 84.58 Q 89.67 83.269 85.719 83.269 L 78.083 83.269 Z" style="fill: rgb(244, 244, 244); white-space: pre;"/>
    </g>
  </g>
</svg>